<svg width="16" height="16" viewBox="0 0 16 16" fill="none" xmlns="http://www.w3.org/2000/svg">
<circle cx="8" cy="8" r="8" fill="#202028"/>
<path d="M8.65591 11.5269C8.29749 11.8423 7.86738 12 7.36559 12C7.00717 12 6.66308 11.914 6.33333 11.7419C6.01792 11.5699 5.75269 11.3333 5.53763 11.0323C5.35125 10.8029 5.21505 10.5448 5.12903 10.2581C5.04301 9.97133 5 9.62007 5 9.2043C5 9.06093 5.01434 8.77419 5.04301 8.34409C5.08602 7.81362 5.25806 7.26165 5.55914 6.68817C5.87455 6.1147 6.26165 5.60574 6.72043 5.16129C7.17921 4.70251 7.63082 4.3871 8.07527 4.21505C8.30466 4.07168 8.51254 4 8.69893 4C8.79928 4 8.89964 4.00717 9 4.02151C9.10036 4.03584 9.20788 4.05018 9.32258 4.06452C9.63799 4.10753 9.87455 4.17204 10.0323 4.25806C10.2043 4.32975 10.3477 4.44444 10.4624 4.60215C10.8208 4.96057 11 5.37634 11 5.84946C10.9427 6.19355 10.7204 6.58781 10.3333 7.03226C9.94624 7.4767 9.48029 7.83513 8.93548 8.10753C8.67742 8.19355 8.38351 8.23656 8.05376 8.23656C7.60932 8.23656 7.2509 8.14337 6.97849 7.95699C6.84946 7.91398 6.7491 7.89247 6.67742 7.89247C6.54839 7.89247 6.44803 7.9785 6.37634 8.15054C6.319 8.32258 6.26165 8.63799 6.2043 9.09677C6.18996 9.19713 6.1828 9.3405 6.1828 9.52688C6.1828 10.2581 6.42652 10.6595 6.91398 10.7312C7.24373 10.8029 7.48029 10.8387 7.62366 10.8387C7.7957 10.8387 7.98925 10.7814 8.2043 10.6667L8.6129 10.4301C8.69892 10.3871 8.77778 10.3297 8.84946 10.2581C8.92115 10.1864 8.98566 10.1219 9.04301 10.0645C9.07168 10.0358 9.1147 9.99283 9.17204 9.93548C9.22939 9.8638 9.27957 9.82079 9.32258 9.80645C9.37993 9.77778 9.43011 9.76344 9.47312 9.76344C9.53047 9.76344 9.59498 9.79928 9.66667 9.87097C9.73835 9.92832 9.7957 9.97133 9.83871 10C9.96774 10 9.99642 10.0932 9.92473 10.2796C9.85305 10.4516 9.69534 10.6595 9.45161 10.9032C9.22222 11.1326 8.95699 11.3405 8.65591 11.5269ZM8.63441 6.96774C8.87814 6.86738 9.12186 6.68817 9.36559 6.43011C9.62366 6.17204 9.75269 5.95699 9.75269 5.78495C9.75269 5.6129 9.68817 5.46953 9.55914 5.35484C9.43011 5.24014 9.2509 5.1828 9.02151 5.1828C8.84946 5.1828 8.72043 5.19713 8.63441 5.22581C8.43369 5.28316 8.19713 5.44086 7.92473 5.69892C7.65233 5.94265 7.41577 6.19355 7.21505 6.45161C7.01434 6.70968 6.93548 6.86022 6.97849 6.90323C7.05018 7.03226 7.32975 7.09677 7.8172 7.09677C8.14695 7.09677 8.41935 7.05376 8.63441 6.96774Z" fill="#FFC107"/>
</svg>
